# xmcd
#
# Track frame offsets: 
#        150
#        10326
#        23637
#        33128
#        44785
#        54164
#        61608
#        72490
#        82495
#        96897
#        107864
#        117300
#        128963
#        141824
#        153693
#        163395
#        174439
#        185640
#        198252
#        209405
#
# Disc length: 2925 seconds
#
# Revision: 0
# Processed by: cddbd v1.5.2PL0 Copyright (c) Steve Scherf et al.
# Submitted via: ExactAudioCopyFreeDBPlugin 1.0
#
DISCID=260b6b14
DTITLE=Various Artist - The Best Northern Soul Album
DYEAR=1900
DGENRE=Northern Soul
TTITLE0=The M.V.P.'s - Turnin' My Heartbeat Up
TTITLE1=Chairman Of The Board - (You Got Me) Danglin' On A String
TTITLE2=Ike and Tina Turner - Gonna Have Fun
TTITLE3=Kenny Carter - What's That On Your Finger
TTITLE4=Ray Paige - Ain't No Soul
TTITLE5=The Virginia Wolves - Stay
TTITLE6=The Seven Souls - I Still Love You
TTITLE7=Sharon Scott - It's Better
TTITLE8=Lou Edwards and Today's People - Talkin' 'bout Poor FolksThinkin
TTITLE8=' 'bout My Folks
TTITLE9=Little Richard - I Don't Want To Discuss It
TTITLE10=Nancy Ames - I Don't Want To Talk About It
TTITLE11=Paul Anka - When We Get There
TTITLE12=The Spyders - I Can Take Care Of Myself
TTITLE13=Billy Joe Royal - Heart's Desire
TTITLE14=Dean Courtney - I'll Always Need You
TTITLE15=Rose Valentine - I've Gotta Know Right Now
TTITLE16=T.D. Valentine - Love Trap
TTITLE17=The Exiters - Blowin' Up My Mind
TTITLE18=Vernon Garrett - If I Could Turn Back The Hands Of Time
TTITLE19=Gloria Edwards - My Love Keeps Getting Stronger
EXTD=
EXTT0=
EXTT1=
EXTT2=
EXTT3=
EXTT4=
EXTT5=
EXTT6=
EXTT7=
EXTT8=
EXTT9=
EXTT10=
EXTT11=
EXTT12=
EXTT13=
EXTT14=
EXTT15=
EXTT16=
EXTT17=
EXTT18=
EXTT19=
PLAYORDER=
